<mxfile host="app.diagrams.net" modified="2022-02-15T16:45:02.799Z" agent="5.0 (Macintosh; Intel Mac OS X 10_15_7) AppleWebKit/537.36 (KHTML, like Gecko) Chrome/97.0.4692.99 Safari/537.36" etag="zyfsrWoI6Y0RpZ2nETm5" version="16.5.3" type="github">
  <diagram id="81j5qah-35toSOrjM9Ve" name="Page-1">
    <mxGraphModel dx="946" dy="613" grid="1" gridSize="10" guides="1" tooltips="1" connect="1" arrows="1" fold="1" page="1" pageScale="1" pageWidth="850" pageHeight="1100" math="0" shadow="0">
      <root>
        <mxCell id="0" />
        <mxCell id="1" parent="0" />
        <mxCell id="NI-QJ-N0Z1hu9iZLNoDF-1" value="Store Front" style="shape=umlFrame;whiteSpace=wrap;html=1;width=120;height=20;fillColor=#ffe6cc;strokeColor=#d79b00;" vertex="1" parent="1">
          <mxGeometry x="230" y="120" width="290" height="400" as="geometry" />
        </mxCell>
        <mxCell id="NI-QJ-N0Z1hu9iZLNoDF-2" value="Commerce Engine" style="shape=umlFrame;whiteSpace=wrap;html=1;width=120;height=20;fillColor=#dae8fc;strokeColor=#6c8ebf;" vertex="1" parent="1">
          <mxGeometry x="630" y="120" width="290" height="400" as="geometry" />
        </mxCell>
        <mxCell id="NI-QJ-N0Z1hu9iZLNoDF-3" value="Customer" style="shape=umlActor;verticalLabelPosition=bottom;verticalAlign=top;html=1;" vertex="1" parent="1">
          <mxGeometry x="70" y="139" width="30" height="60" as="geometry" />
        </mxCell>
        <mxCell id="NI-QJ-N0Z1hu9iZLNoDF-6" value="Developer" style="shape=umlActor;verticalLabelPosition=bottom;verticalAlign=top;html=1;" vertex="1" parent="1">
          <mxGeometry x="70" y="270" width="30" height="60" as="geometry" />
        </mxCell>
        <mxCell id="NI-QJ-N0Z1hu9iZLNoDF-8" value="Test Engine" style="shape=umlActor;verticalLabelPosition=bottom;verticalAlign=top;html=1;" vertex="1" parent="1">
          <mxGeometry x="70" y="397" width="30" height="60" as="geometry" />
        </mxCell>
        <mxCell id="NI-QJ-N0Z1hu9iZLNoDF-9" value="DevOps" style="shape=umlActor;verticalLabelPosition=bottom;verticalAlign=top;html=1;" vertex="1" parent="1">
          <mxGeometry x="70" y="530" width="30" height="60" as="geometry" />
        </mxCell>
        <mxCell id="NI-QJ-N0Z1hu9iZLNoDF-12" value="Browse product" style="ellipse;whiteSpace=wrap;html=1;fillColor=#ffe6cc;strokeColor=#d79b00;" vertex="1" parent="1">
          <mxGeometry x="318" y="150" width="140" height="70" as="geometry" />
        </mxCell>
        <mxCell id="NI-QJ-N0Z1hu9iZLNoDF-13" value="View Product" style="ellipse;whiteSpace=wrap;html=1;fillColor=#ffe6cc;strokeColor=#d79b00;" vertex="1" parent="1">
          <mxGeometry x="315" y="250" width="140" height="70" as="geometry" />
        </mxCell>
      </root>
    </mxGraphModel>
  </diagram>
</mxfile>
